<svg width="70" height="52" viewBox="0 0 70 52" fill="none" xmlns="http://www.w3.org/2000/svg">
<g id="Group 427319487">
<path id="Vector 8" d="M1.0216 21.1578C15.3041 17.2133 21.8322 29.8331 18.4043 33.1192C14.8264 36.5493 11.1168 31.9168 12.9189 29.379C16.0492 24.9709 24.4563 29.222 28.2367 43.7624" stroke="#FFE500" stroke-width="4"/>
<path id="Vector 9" d="M41.6768 50.456C38.5263 46.2105 33.6412 35.4215 39.3043 26.2294C44.9674 17.0373 38.685 6.42954 34.8359 2.27466" stroke="#FFE500" stroke-width="4"/>
<path id="Vector 10" d="M50.5805 31.5517C53.9981 26.9002 62.2917 17.3389 68.1251 16.3055" stroke="#FFE500" stroke-width="4"/>
<path id="Vector 11" d="M56.0944 10.3427C56.4623 8.22617 57.661 3.59449 59.5125 1.99988" stroke="#FFE500" stroke-width="4"/>
<path id="Vector 12" d="M24.4052 24.4738C22.562 21.3308 18.0735 14.8795 14.8654 14.2184" stroke="#FFE500" stroke-width="4"/>
</g>
</svg>
